<?xml version="1.0" encoding="UTF-8"?>
<svg width="1439px" height="34px" viewBox="0 0 1439 34" version="1.1" xmlns="http://www.w3.org/2000/svg" xmlns:xlink="http://www.w3.org/1999/xlink">
    <!-- Generator: Sketch 54.1 (76490) - https://sketchapp.com -->
    <title>Combined Shape</title>
    <desc>Created with Sketch.</desc>
    <g id="Page-1" stroke="none" stroke-width="1" fill="none" fill-rule="evenodd">
        <g id="HOME" transform="translate(-1.000000, -4453.000000)" fill="#FFFFFF">
            <g id="Group-17" transform="translate(-64.000000, 2953.000000)">
                <g id="Group-13" transform="translate(65.000000, 1500.000000)">
                    <path d="M17,0.0294372515 L33.9705627,17 L17,33.9705627 L0.0294372515,17 L17,0.0294372515 Z M51,0.0294372515 L67.9705627,17 L51,33.9705627 L34.0294373,17 L51,0.0294372515 Z M85,0.0294372515 L101.970563,17 L85,33.9705627 L68.0294373,17 L85,0.0294372515 Z M119,0.0294372515 L135.970563,17 L119,33.9705627 L102.029437,17 L119,0.0294372515 Z M153,0.0294372515 L169.970563,17 L153,33.9705627 L136.029437,17 L153,0.0294372515 Z M187,0.0294372515 L203.970563,17 L187,33.9705627 L170.029437,17 L187,0.0294372515 Z M221,0.0294372515 L237.970563,17 L221,33.9705627 L204.029437,17 L221,0.0294372515 Z M255,0.0294372515 L271.970563,17 L255,33.9705627 L238.029437,17 L255,0.0294372515 Z M289,0.0294372515 L305.970563,17 L289,33.9705627 L272.029437,17 L289,0.0294372515 Z M323,0.0294372515 L339.970563,17 L323,33.9705627 L306.029437,17 L323,0.0294372515 Z M357,0.0294372515 L373.970563,17 L357,33.9705627 L340.029437,17 L357,0.0294372515 Z M391,0.0294372515 L407.970563,17 L391,33.9705627 L374.029437,17 L391,0.0294372515 Z M425,0.0294372515 L441.970563,17 L425,33.9705627 L408.029437,17 L425,0.0294372515 Z M459,0.0294372515 L475.970563,17 L459,33.9705627 L442.029437,17 L459,0.0294372515 Z M493,0.0294372515 L509.970563,17 L493,33.9705627 L476.029437,17 L493,0.0294372515 Z M527,0.0294372515 L543.970563,17 L527,33.9705627 L510.029437,17 L527,0.0294372515 Z M561,0.0294372515 L577.970563,17 L561,33.9705627 L544.029437,17 L561,0.0294372515 Z M595,0.0294372515 L611.970563,17 L595,33.9705627 L578.029437,17 L595,0.0294372515 Z M629,0.0294372515 L645.970563,17 L629,33.9705627 L612.029437,17 L629,0.0294372515 Z M663,0.0294372515 L679.970563,17 L663,33.9705627 L646.029437,17 L663,0.0294372515 Z M697,0.0294372515 L713.970563,17 L697,33.9705627 L680.029437,17 L697,0.0294372515 Z M731,0.0294372515 L747.970563,17 L731,33.9705627 L714.029437,17 L731,0.0294372515 Z M765,0.0294372515 L781.970563,17 L765,33.9705627 L748.029437,17 L765,0.0294372515 Z M799,0.0294372515 L815.970563,17 L799,33.9705627 L782.029437,17 L799,0.0294372515 Z M833,0.0294372515 L849.970563,17 L833,33.9705627 L816.029437,17 L833,0.0294372515 Z M867,0.0294372515 L883.970563,17 L867,33.9705627 L850.029437,17 L867,0.0294372515 Z M901,0.0294372515 L917.970563,17 L901,33.9705627 L884.029437,17 L901,0.0294372515 Z M935,0.0294372515 L951.970563,17 L935,33.9705627 L918.029437,17 L935,0.0294372515 Z M969,0.0294372515 L985.970563,17 L969,33.9705627 L952.029437,17 L969,0.0294372515 Z M1003,0.0294372515 L1019.97056,17 L1003,33.9705627 L986.029437,17 L1003,0.0294372515 Z M1037,0.0294372515 L1053.97056,17 L1037,33.9705627 L1020.02944,17 L1037,0.0294372515 Z M1071,0.0294372515 L1087.97056,17 L1071,33.9705627 L1054.02944,17 L1071,0.0294372515 Z M1105,0.0294372515 L1121.97056,17 L1105,33.9705627 L1088.02944,17 L1105,0.0294372515 Z M1139,0.0294372515 L1155.97056,17 L1139,33.9705627 L1122.02944,17 L1139,0.0294372515 Z M1173,0.0294372515 L1189.97056,17 L1173,33.9705627 L1156.02944,17 L1173,0.0294372515 Z M1207,0.0294372515 L1223.97056,17 L1207,33.9705627 L1190.02944,17 L1207,0.0294372515 Z M1241,0.0294372515 L1257.97056,17 L1241,33.9705627 L1224.02944,17 L1241,0.0294372515 Z M1275,0.0294372515 L1291.97056,17 L1275,33.9705627 L1258.02944,17 L1275,0.0294372515 Z M1309,0.0294372515 L1325.97056,17 L1309,33.9705627 L1292.02944,17 L1309,0.0294372515 Z M1343,0.0294372515 L1359.97056,17 L1343,33.9705627 L1326.02944,17 L1343,0.0294372515 Z M1377,0.0294372515 L1393.97056,17 L1377,33.9705627 L1360.02944,17 L1377,0.0294372515 Z M1411,0.0294372515 L1427.97056,17 L1411,33.9705627 L1394.02944,17 L1411,0.0294372515 Z M1445,0.0294372515 L1461.97056,17 L1445,33.9705627 L1428.02944,17 L1445,0.0294372515 Z" id="Combined-Shape"></path>
                </g>
            </g>
        </g>
    </g>
</svg>