<?xml version="1.0" encoding="UTF-8"?>
<svg width="880px" height="34px" viewBox="0 0 880 34" version="1.1" xmlns="http://www.w3.org/2000/svg" xmlns:xlink="http://www.w3.org/1999/xlink">
    <!-- Generator: Sketch 54.1 (76490) - https://sketchapp.com -->
    <title>Combined Shape</title>
    <desc>Created with Sketch.</desc>
    <g id="Page-1" stroke="none" stroke-width="1" fill="none" fill-rule="evenodd">
        <g id="Artboard" transform="translate(0.000000, -770.000000)" fill="#FFFFFF">
            <path d="M-565.029437,770 L-548.058875,786.970563 L-565.029437,803.941125 L-582,786.970563 L-565.029437,770 Z M-531.029437,770 L-514.058875,786.970563 L-531.029437,803.941125 L-548,786.970563 L-531.029437,770 Z M-497.029437,770 L-480.058875,786.970563 L-497.029437,803.941125 L-514,786.970563 L-497.029437,770 Z M-463.029437,770 L-446.058875,786.970563 L-463.029437,803.941125 L-480,786.970563 L-463.029437,770 Z M-429.029437,770 L-412.058875,786.970563 L-429.029437,803.941125 L-446,786.970563 L-429.029437,770 Z M-395.029437,770 L-378.058875,786.970563 L-395.029437,803.941125 L-412,786.970563 L-395.029437,770 Z M-361.029437,770 L-344.058875,786.970563 L-361.029437,803.941125 L-378,786.970563 L-361.029437,770 Z M-327.029437,770 L-310.058875,786.970563 L-327.029437,803.941125 L-344,786.970563 L-327.029437,770 Z M-293.029437,770 L-276.058875,786.970563 L-293.029437,803.941125 L-310,786.970563 L-293.029437,770 Z M-259.029437,770 L-242.058875,786.970563 L-259.029437,803.941125 L-276,786.970563 L-259.029437,770 Z M-225.029437,770 L-208.058875,786.970563 L-225.029437,803.941125 L-242,786.970563 L-225.029437,770 Z M-191.029437,770 L-174.058875,786.970563 L-191.029437,803.941125 L-208,786.970563 L-191.029437,770 Z M-157.029437,770 L-140.058875,786.970563 L-157.029437,803.941125 L-174,786.970563 L-157.029437,770 Z M-123.029437,770 L-106.058875,786.970563 L-123.029437,803.941125 L-140,786.970563 L-123.029437,770 Z M-89.0294373,770 L-72.0588745,786.970563 L-89.0294373,803.941125 L-106,786.970563 L-89.0294373,770 Z M-55.0294373,770 L-38.0588745,786.970563 L-55.0294373,803.941125 L-72,786.970563 L-55.0294373,770 Z M-21.0294373,770 L-4.0588745,786.970563 L-21.0294373,803.941125 L-38,786.970563 L-21.0294373,770 Z M12.9705627,770 L29.9411255,786.970563 L12.9705627,803.941125 L-4,786.970563 L12.9705627,770 Z M46.9705627,770 L63.9411255,786.970563 L46.9705627,803.941125 L30,786.970563 L46.9705627,770 Z M80.9705627,770 L97.9411255,786.970563 L80.9705627,803.941125 L64,786.970563 L80.9705627,770 Z M114.970563,770 L131.941125,786.970563 L114.970563,803.941125 L98,786.970563 L114.970563,770 Z M148.970563,770 L165.941125,786.970563 L148.970563,803.941125 L132,786.970563 L148.970563,770 Z M182.970563,770 L199.941125,786.970563 L182.970563,803.941125 L166,786.970563 L182.970563,770 Z M216.970563,770 L233.941125,786.970563 L216.970563,803.941125 L200,786.970563 L216.970563,770 Z M250.970563,770 L267.941125,786.970563 L250.970563,803.941125 L234,786.970563 L250.970563,770 Z M284.970563,770 L301.941125,786.970563 L284.970563,803.941125 L268,786.970563 L284.970563,770 Z M318.970563,770 L335.941125,786.970563 L318.970563,803.941125 L302,786.970563 L318.970563,770 Z M352.970563,770 L369.941125,786.970563 L352.970563,803.941125 L336,786.970563 L352.970563,770 Z M386.970563,770 L403.941125,786.970563 L386.970563,803.941125 L370,786.970563 L386.970563,770 Z M420.970563,770 L437.941125,786.970563 L420.970563,803.941125 L404,786.970563 L420.970563,770 Z M454.970563,770 L471.941125,786.970563 L454.970563,803.941125 L438,786.970563 L454.970563,770 Z M488.970563,770 L505.941125,786.970563 L488.970563,803.941125 L472,786.970563 L488.970563,770 Z M522.970563,770 L539.941125,786.970563 L522.970563,803.941125 L506,786.970563 L522.970563,770 Z M556.970563,770 L573.941125,786.970563 L556.970563,803.941125 L540,786.970563 L556.970563,770 Z M590.970563,770 L607.941125,786.970563 L590.970563,803.941125 L574,786.970563 L590.970563,770 Z M624.970563,770 L641.941125,786.970563 L624.970563,803.941125 L608,786.970563 L624.970563,770 Z M658.970563,770 L675.941125,786.970563 L658.970563,803.941125 L642,786.970563 L658.970563,770 Z M692.970563,770 L709.941125,786.970563 L692.970563,803.941125 L676,786.970563 L692.970563,770 Z M726.970563,770 L743.941125,786.970563 L726.970563,803.941125 L710,786.970563 L726.970563,770 Z M760.970563,770 L777.941125,786.970563 L760.970563,803.941125 L744,786.970563 L760.970563,770 Z M794.970563,770 L811.941125,786.970563 L794.970563,803.941125 L778,786.970563 L794.970563,770 Z M828.970563,770 L845.941125,786.970563 L828.970563,803.941125 L812,786.970563 L828.970563,770 Z M862.970563,770 L879.941125,786.970563 L862.970563,803.941125 L846,786.970563 L862.970563,770 Z" id="Combined-Shape"></path>
        </g>
    </g>
</svg>