<?xml version="1.0" encoding="UTF-8"?>
<svg width="26px" height="24px" viewBox="0 0 26 24" version="1.1" xmlns="http://www.w3.org/2000/svg" xmlns:xlink="http://www.w3.org/1999/xlink">
    <!-- Generator: Sketch 54.1 (76490) - https://sketchapp.com -->
    <title>ic_mission</title>
    <desc>Created with Sketch.</desc>
    <g id="Page-1" stroke="none" stroke-width="1" fill="none" fill-rule="evenodd">
        <g id="Artboard" transform="translate(-286.000000, -949.000000)" fill="#000000">
            <g id="ic_mission" transform="translate(287.000000, 949.000000)">
                <g id="target" transform="translate(0.000000, 1.000000)">
                    <path d="M14.6379883,5.77230409 C14.7293567,5.86367251 14.849076,5.90933333 14.9687953,5.90933333 C15.0885146,5.90933333 15.2082807,5.86367251 15.2996023,5.77230409 C15.4822924,5.58961404 15.4822924,5.29338012 15.2996023,5.11064327 L15.2932865,5.10432749 C15.1105965,4.92163743 14.8143626,4.92163743 14.6316257,5.10432749 C14.4489357,5.28701754 14.4489357,5.58325146 14.6316257,5.7659883 L14.6379883,5.77230409 Z" id="XMLID_4218_" fill-rule="nonzero"></path>
                    <path d="M22.1855439,10.1988304 L23.8161871,8.56818713 C23.9499883,8.43438596 23.9899883,8.23312281 23.9175673,8.05833918 C23.8451462,7.88350877 23.6745731,7.76954386 23.4853333,7.76954386 L20.1051696,7.76954386 C19.663345,5.96088889 18.7360468,4.31284211 17.4104327,2.98718129 C15.4842105,1.0608655 12.9230409,0 10.1988304,0 C7.47461988,0 4.91345029,1.0608655 2.98718129,2.98718129 C1.0608655,4.91349708 0,7.47461988 0,10.1988304 C0,12.9230409 1.0608655,15.4842105 2.98718129,17.4104795 C3.56,17.9832982 4.18928655,18.478924 4.8619883,18.8935205 L3.45253801,21.3835789 C3.3705731,21.5284211 3.37169591,21.7059181 3.45553216,21.8496374 C3.53932164,21.9934503 3.69319298,22.0818713 3.85964912,22.0818713 L6.26900585,22.0818713 C6.43756725,22.0818713 6.59312281,21.9912047 6.67616374,21.8444912 L7.67274854,20.0837895 C8.48842105,20.2907135 9.33539181,20.3976608 10.1988304,20.3976608 C11.062269,20.3976608 11.9092398,20.2907135 12.7249123,20.0837895 L13.7214971,21.8444912 C13.804538,21.9912047 13.9600936,22.0818713 14.128655,22.0818713 L16.5380117,22.0818713 C16.7044678,22.0818713 16.8583392,21.9934503 16.9421754,21.8496842 C17.0260117,21.7059181 17.0271345,21.5284211 16.9451696,21.3836257 L15.5357193,18.8935673 C16.2084211,18.478924 16.8377076,17.983345 17.4105263,17.4105263 C18.7356257,16.0854269 19.6633918,14.4366784 20.1051696,12.6281637 L23.4853801,12.6281637 C23.6745731,12.6281637 23.845193,12.514152 23.917614,12.3393684 C23.9900351,12.1645848 23.9499883,11.9633216 23.8162339,11.8295205 L22.1855439,10.1988304 Z M21.3301053,9.73099415 L18.0651228,9.73099415 L19.0909006,8.70521637 L22.3559298,8.70521637 L21.3301053,9.73099415 Z M5.99621053,21.1461988 L4.66203509,21.1461988 L5.68032749,19.3472281 C6.02980117,19.5202339 6.3885848,19.6732632 6.75564912,19.804538 L5.99621053,21.1461988 Z M15.7356257,21.1461988 L14.4014503,21.1461988 L13.6420117,19.804538 C14.009076,19.6732632 14.3678596,19.5202339 14.7173333,19.3472281 L15.7356257,21.1461988 Z M16.7488655,16.7488655 C16.1308538,17.3668772 15.4406082,17.886269 14.6975906,18.3003041 C14.6884211,18.3047485 14.6791579,18.3089591 14.6701287,18.3140585 C14.6644678,18.3172865 14.6593216,18.3209825 14.653848,18.3243977 C14.083883,18.6379415 13.4832749,18.8896842 12.8600702,19.0756023 C12.8355556,19.0804678 12.8113216,19.0876725 12.7874152,19.096655 C11.9568187,19.3370292 11.0874854,19.4619883 10.1988304,19.4619883 C9.31017544,19.4619883 8.44084211,19.3370292 7.61024561,19.0967018 C7.5862924,19.0877193 7.56205848,19.0805146 7.53749708,19.0756491 C6.91433918,18.889731 6.31373099,18.6379883 5.74381287,18.3244444 C5.73833918,18.3210292 5.73319298,18.3173333 5.72753216,18.3141053 C5.71850292,18.3090058 5.70928655,18.3047953 5.70011696,18.3003509 C4.95709942,17.8863158 4.2668538,17.366924 3.64884211,16.7488655 C1.89922807,14.9992982 0.935672515,12.6731228 0.935672515,10.1988304 C0.935672515,7.72453801 1.89922807,5.39836257 3.64879532,3.64879532 C5.39836257,1.89922807 7.72453801,0.935672515 10.1988304,0.935672515 C12.6731228,0.935672515 14.9992982,1.89922807 16.7488655,3.64879532 C17.8984795,4.79840936 18.7184094,6.21459649 19.1394152,7.76954386 L18.8971696,7.76954386 C18.7730994,7.76954386 18.6540819,7.8188538 18.5663626,7.9065731 L17.3246784,9.14825731 C17.1993918,8.29768421 16.9243977,7.47064327 16.5091462,6.71850292 C16.3842807,6.49230409 16.0996491,6.41024561 15.8734503,6.53506433 C15.6472515,6.65992982 15.5651462,6.9445614 15.6900117,7.17076023 C16.1341287,7.97515789 16.3822222,8.84973099 16.4457076,9.73104094 L14.382924,9.73104094 C14.2787836,8.78339181 13.8600234,7.90549708 13.1761404,7.22161404 C12.3808655,6.4262924 11.3235088,5.98830409 10.1988304,5.98830409 C9.07415205,5.98830409 8.01679532,6.4262924 7.22156725,7.22152047 C6.4262924,8.01684211 5.98830409,9.07415205 5.98830409,10.1988304 C5.98830409,11.3235088 6.4262924,12.3808655 7.22152047,13.1760936 C8.01679532,13.9713684 9.07415205,14.4093567 10.1988304,14.4093567 C11.3235088,14.4093567 12.3808655,13.9713684 13.1760936,13.1761404 C13.8599766,12.4922573 14.2787368,11.6143626 14.3828772,10.6666667 L16.4436491,10.6666667 C16.3320702,12.1291228 15.7149474,13.5483509 14.6316725,14.6316725 C13.4476257,15.8157661 11.8733099,16.4678363 10.1988304,16.4678363 C8.52435088,16.4678363 6.95003509,15.8157661 5.7659883,14.6316725 C4.58189474,13.4476257 3.92982456,11.8733567 3.92982456,10.1988304 C3.92982456,8.52430409 4.58189474,6.95003509 5.7659883,5.7659883 C7.73005848,3.80191813 10.7981287,3.36673684 13.2269474,4.70769591 C13.4530994,4.83251462 13.737731,4.75045614 13.8626433,4.52425731 C13.9875088,4.29805848 13.9054035,4.01347368 13.6792047,3.8885614 C12.3390877,3.14867836 10.7611228,2.85380117 9.23611696,3.05843275 C7.66021053,3.26980117 6.2314386,3.97726316 5.10437427,5.10437427 C3.74357895,6.46516959 2.99415205,8.27438596 2.99415205,10.1988304 C2.99415205,12.1232749 3.74357895,13.932538 5.10432749,15.2932865 C6.46512281,16.6540819 8.27438596,17.4035088 10.1988304,17.4035088 C12.1232749,17.4035088 13.932538,16.6540819 15.2932865,15.2933333 C16.3990175,14.1876491 17.1004912,12.7915789 17.3263158,11.2511345 L18.5663158,12.4911345 C18.6540351,12.5788538 18.7730526,12.6281637 18.8971228,12.6281637 L19.1392749,12.6281637 C18.718269,14.1830175 17.8980117,15.5997193 16.7488655,16.7488655 Z M11.7267836,9.31667836 C11.597614,9.0928655 11.3114854,9.01623392 11.0877193,9.14545029 L9.96491228,9.79368421 C9.82016374,9.87723977 9.73099415,10.0316725 9.73099415,10.1988304 C9.73099415,10.3659883 9.82016374,10.5204211 9.96491228,10.6039766 L11.0877193,11.2522105 C11.1614035,11.2947368 11.2418246,11.3149474 11.3212164,11.3149474 C11.4829006,11.3149474 11.6401404,11.2310643 11.7267836,11.0809825 C11.8027135,10.9495205 11.8070643,10.7966784 11.7527485,10.6666667 L13.4403275,10.6666667 C13.341193,11.363883 13.0213333,12.0076725 12.5144795,12.5144795 L12.5144795,12.5144795 C11.8959532,13.1330526 11.0735906,13.4736842 10.1988304,13.4736842 C9.32407018,13.4736842 8.5017076,13.1330526 7.8831345,12.5144795 C7.26460819,11.8959532 6.92397661,11.0735906 6.92397661,10.1988304 C6.92397661,9.32407018 7.26460819,8.5017076 7.88318129,7.8831345 C8.5017076,7.26460819 9.32407018,6.92397661 10.1988304,6.92397661 C11.0735906,6.92397661 11.8959532,7.26460819 12.5145263,7.88318129 C13.0213333,8.3899883 13.3412398,9.03377778 13.4403743,9.73099415 L11.7527953,9.73099415 C11.8070643,9.60093567 11.8027135,9.44814035 11.7267836,9.31667836 Z M19.0909006,11.6924444 L18.0651228,10.6666667 L21.3301053,10.6666667 L22.3559298,11.6924444 L19.0909006,11.6924444 Z" id="XMLID_4221_" stroke="#000000" stroke-width="0.3" fill-rule="nonzero"></path>
                </g>
            </g>
        </g>
    </g>
</svg>