<?xml version="1.0" encoding="UTF-8"?>
<svg width="24px" height="23px" viewBox="0 0 24 23" version="1.1" xmlns="http://www.w3.org/2000/svg" xmlns:xlink="http://www.w3.org/1999/xlink">
    <!-- Generator: Sketch 54.1 (76490) - https://sketchapp.com -->
    <title>ic_values</title>
    <desc>Created with Sketch.</desc>
    <g id="Page-1" stroke="none" stroke-width="1" fill="none" fill-rule="evenodd">
        <g id="Artboard" transform="translate(-971.000000, -949.000000)" fill="#000000">
            <g id="ic_values" transform="translate(971.000000, 949.000000)">
                <g id="value">
                    <path d="M21.2931563,11.3722969 L18.6820781,7.34015625 C18.4797188,7.02764062 18.1365938,6.84103125 17.7642656,6.84103125 L6.2439375,6.84103125 C5.87217188,6.84103125 5.529375,7.02717187 5.32692188,7.33889062 L2.70773438,11.3715469 C2.44007813,11.7835781 2.48142188,12.3276094 2.80828125,12.6944531 L11.1830625,22.0966406 C11.3903438,22.3293281 11.6879063,22.4628281 11.9995313,22.4628281 C11.9995781,22.4628281 11.9995313,22.4628281 11.9995781,22.4628281 C12.3111563,22.4628281 12.6088125,22.329375 12.8160938,22.0966875 L21.1918125,12.6939375 C21.5182031,12.3275156 21.559875,11.7840469 21.2931563,11.3722969 Z M17.2353281,7.77848437 L15.0394219,11.1741094 L12.8422031,7.77848437 L17.2353281,7.77848437 Z M14.1779062,11.5684219 L9.82115625,11.5684219 L11.9995313,8.20190625 L14.1779062,11.5684219 Z M11.1568594,7.77857812 L8.9656875,11.164875 L6.77526563,7.77857812 L11.1568594,7.77857812 L11.1568594,7.77857812 Z M5.9085,8.16459375 L8.11021875,11.5684219 L3.69773438,11.5684219 L5.9085,8.16459375 Z M3.89573438,12.5059219 L8.61346875,12.5059219 L11.1079688,20.602875 L3.89573438,12.5059219 Z M11.9995313,20.312625 L9.59442188,12.5059219 L14.4046406,12.5059219 L11.9995313,20.312625 Z M12.8910469,20.6031562 L15.3856406,12.5059687 L20.1037969,12.5059687 L12.8910469,20.6031562 Z M15.9009375,11.5684219 L18.1006406,8.1669375 L20.30325,11.5684219 L15.9009375,11.5684219 Z" id="Shape" stroke="#000000" stroke-width="0.2" fill-rule="nonzero"></path>
                    <path d="M1.42185937,11.5684219 L0.46875,11.5684219 C0.20990625,11.5684219 0,11.7782812 0,12.0371719 C0,12.2960625 0.20990625,12.5059219 0.46875,12.5059219 L1.42185937,12.5059219 C1.68070312,12.5059219 1.89060937,12.2960625 1.89060937,12.0371719 C1.89060937,11.7782812 1.68070312,11.5684219 1.42185937,11.5684219 Z" id="Path" fill-rule="nonzero"></path>
                    <path d="M23.53125,11.5684219 L22.5781406,11.5684219 C22.3192969,11.5684219 22.1093906,11.7782812 22.1093906,12.0371719 C22.1093906,12.2960625 22.3192969,12.5059219 22.5781406,12.5059219 L23.53125,12.5059219 C23.7900937,12.5059219 24,12.2960625 24,12.0371719 C24,11.7782812 23.7900937,11.5684219 23.53125,11.5684219 Z" id="Path" fill-rule="nonzero"></path>
                    <path d="M20.4912187,3.55434375 C20.308125,3.37129687 20.0114062,3.37129687 19.8282656,3.55434375 L18.2712187,5.11139062 C18.0881719,5.2944375 18.0881719,5.59125 18.2712187,5.77429687 C18.3628125,5.86584375 18.4827656,5.91159375 18.6027188,5.91159375 C18.7227187,5.91159375 18.842625,5.86579687 18.9341719,5.77429687 L20.4912188,4.21725 C20.6742656,4.03420312 20.6742656,3.7374375 20.4912187,3.55434375 Z" id="Path" fill-rule="nonzero"></path>
                    <path d="M5.74903125,5.10304688 L4.19203125,3.54595313 C4.00903125,3.36290625 3.7123125,3.36290625 3.52907813,3.54595313 C3.34603125,3.729 3.34603125,4.0258125 3.52907813,4.20885938 L5.086125,5.76590625 C5.17767188,5.85745313 5.297625,5.90320313 5.41757813,5.90320313 C5.53753125,5.90320313 5.65748438,5.85740625 5.74903125,5.76590625 C5.93207813,5.58290625 5.93207813,5.28604688 5.74903125,5.10304688 Z" id="Path" fill-rule="nonzero"></path>
                    <path d="M12.0119062,0.037171875 C11.7530625,0.037171875 11.5431562,0.24703125 11.5431562,0.505921875 L11.5431562,3.56067188 C11.5431562,3.8195625 11.7530156,4.02942188 12.0119062,4.02942188 C12.27075,4.02942188 12.4806562,3.8195625 12.4806562,3.56067188 L12.4806562,0.505921875 C12.4806562,0.247078125 12.27075,0.037171875 12.0119062,0.037171875 Z" id="Path" fill-rule="nonzero"></path>
                    <path d="M12.3430781,4.815 C12.2559375,4.7278125 12.135,4.67765625 12.0117188,4.67765625 C11.8884375,4.67765625 11.7675,4.7278125 11.6803125,4.815 C11.593125,4.9021875 11.5429688,5.023125 11.5429688,5.14640625 C11.5429688,5.27015625 11.5930781,5.390625 11.6803125,5.4778125 C11.7675,5.56546875 11.8884375,5.61515625 12.0117188,5.61515625 C12.135,5.61515625 12.2559375,5.56546875 12.3430781,5.4778125 C12.4307344,5.390625 12.4804688,5.2696875 12.4804688,5.14640625 C12.4804688,5.023125 12.4307344,4.90223438 12.3430781,4.815 Z" id="Path" fill-rule="nonzero"></path>
                </g>
            </g>
        </g>
    </g>
</svg>