<?xml version="1.0" encoding="UTF-8"?>
<svg width="24px" height="22px" viewBox="0 0 24 22" version="1.1" xmlns="http://www.w3.org/2000/svg" xmlns:xlink="http://www.w3.org/1999/xlink">
    <!-- Generator: Sketch 54.1 (76490) - https://sketchapp.com -->
    <title>ic_vision</title>
    <desc>Created with Sketch.</desc>
    <g id="Page-1" stroke="none" stroke-width="1" fill="none" fill-rule="evenodd">
        <g id="Artboard" transform="translate(-624.000000, -950.000000)" fill="#000000" stroke="#000000">
            <g id="ic_vision" transform="translate(624.000000, 949.000000)">
                <g id="flag" transform="translate(1.000000, 2.000000)">
                    <path d="M21.8978203,18.9240598 L17.2736094,11.4492308 C17.1471523,11.2448718 16.927625,11.1228632 16.6863555,11.1228632 C16.4451289,11.1228632 16.2256016,11.2449145 16.0992305,11.4492308 L15.4988711,12.4197009 C15.405457,12.5706838 15.4528086,12.7684188 15.6046172,12.8613248 C15.7565117,12.954188 15.9552422,12.9071368 16.0486992,12.7561538 L16.6490586,11.785641 C16.6522383,11.7805128 16.6619063,11.7648718 16.6864414,11.7648718 C16.7109766,11.7648718 16.7206875,11.7805128 16.7238672,11.785641 L21.3480781,19.2604701 C21.3517734,19.2664103 21.3615703,19.282265 21.3490234,19.3046154 C21.3364766,19.3269658 21.3177422,19.3269658 21.3106953,19.3269658 L18.7497578,19.3269658 L11.587168,7.7492735 C11.5228438,7.64525641 11.4343281,7.56273504 11.3311602,7.50662393 C11.3312891,7.50666667 11.331418,7.50675214 11.3315039,7.50679487 L11.3315039,5.32816239 C11.6001016,5.40059829 11.8617383,5.43153846 12.1177031,5.43153846 C12.8538438,5.43153846 13.5431914,5.17705128 14.2175859,4.92807692 C15.1520703,4.58307692 16.0347344,4.25722222 16.9894141,4.63799145 C17.1125195,4.68709402 17.2516523,4.67230769 17.3615234,4.59837607 C17.4715664,4.52435897 17.5372227,4.40132479 17.5372227,4.2692735 L17.5372227,0.642905983 C17.5372227,0.483076923 17.441875,0.339444444 17.2944492,0.277051282 C16.0826016,-0.236923077 15.0202422,0.155213675 13.9929023,0.534444444 C13.0304883,0.88974359 12.1214844,1.22534188 11.1316992,0.785384615 C11.0317969,0.740982906 10.916168,0.749957265 10.8243867,0.809102564 C10.7326055,0.868290598 10.6772188,0.96965812 10.6772188,1.07846154 L10.6772188,1.09038462 C10.6716758,1.1142735 10.6684961,1.13901709 10.6684961,1.16457265 L10.6684961,7.50679487 C10.5655,7.56290598 10.4770703,7.64538462 10.4127891,7.7492735 L7.01228516,13.2459829 L5.90076953,11.4492735 C5.77435547,11.2449145 5.55482813,11.122906 5.31355859,11.122906 C5.07233203,11.122906 4.85280469,11.2449145 4.72639063,11.4492735 L0.102136719,18.9240598 C-0.0286171875,19.1353846 -0.034203125,19.4012393 0.087484375,19.6178632 C0.209171875,19.8344872 0.439785156,19.9690598 0.689304687,19.9690598 L21.3106523,19.9690598 C21.5601719,19.9690598 21.7907852,19.8344872 21.9124727,19.6178632 C22.0342031,19.4012393 22.0285742,19.1353419 21.8978203,18.9240598 Z M11.3227813,1.53423077 C12.3676523,1.8192735 13.3061328,1.47282051 14.2175859,1.13632479 C15.1192852,0.803418803 15.9735898,0.488119658 16.8917031,0.80974359 L16.8917031,3.92876068 C15.8436953,3.64294872 14.9042695,3.98978632 13.9929453,4.32619658 C13.09275,4.65850427 12.2392617,4.97358974 11.3227813,4.65294872 L11.3227813,1.53423077 Z M4.00821094,19.3270085 L5.11555859,17.5370513 C5.20897266,17.3860684 5.16162109,17.1883333 5.0098125,17.0954274 C4.85796094,17.0025641 4.6591875,17.0496154 4.56577344,17.2005983 L3.25028516,19.3270085 L0.689347656,19.3270085 C0.682300781,19.3270085 0.663566406,19.3270085 0.651019531,19.3046581 C0.638472656,19.2823077 0.648226562,19.2664957 0.651964844,19.2605128 L5.27621875,11.7857265 C5.27939844,11.7805983 5.28906641,11.7649573 5.31360156,11.7649573 C5.33813672,11.7649573 5.34780469,11.7805983 5.35098437,11.7857265 L6.63334375,13.858547 L5.35291797,15.9282479 C5.25950391,16.0792308 5.30685547,16.2769658 5.45866406,16.3698718 C5.61055859,16.4627778 5.80933203,16.4156838 5.90270312,16.2647009 L10.9626172,8.08568376 C10.9657969,8.08055556 10.9754648,8.06491453 11,8.06491453 C11.0244922,8.06491453 11.0341602,8.08055556 11.0373828,8.08568376 L17.9917891,19.3270085 L4.00821094,19.3270085 L4.00821094,19.3270085 Z" id="Shape" stroke-width="0.5" fill-rule="nonzero"></path>
                </g>
            </g>
        </g>
    </g>
</svg>